wght100_wdth50.ufo
<glyph name="zero" format="2">
	<unicode hex="0030"/>
	<advance width="1179"/>
	<outline>
		<contour>
			<point x="73.9989013672" y="746.0256347656" type="qcurve" smooth="yes"/>
			<point x="73.9989013672" y="1094.7063598633"/>
			<point x="329.5471801758" y="1514.0032958984"/>
			<point x="590.6018066406" y="1514.0032958984" type="qcurve" smooth="yes"/>
			<point x="856.9681396484" y="1514.0032958984"/>
			<point x="1104.9209594727" y="1095.6823730469"/>
			<point x="1104.9209594727" y="749.0016479492" type="qcurve" smooth="yes"/>
			<point x="1104.9209594727" y="412.2249755859"/>
			<point x="859.5991210938" y="-29"/>
			<point x="591.885559082" y="-29" type="qcurve" smooth="yes"/>
			<point x="324.6044921875" y="-29"/>
			<point x="73.9989013672" y="393.3688964844"/>
		</contour>
		<contour>
			<point x="260.3135986328" y="762.9536743164" type="qcurve" smooth="yes"/>
			<point x="259" y="481"/>
			<point x="433.3822021484" y="84"/>
			<point x="590.6018066406" y="84" type="qcurve" smooth="yes"/>
			<point x="746.8214111328" y="84"/>
			<point x="917" y="447"/>
			<point x="918.606262207" y="752.0256347656" type="qcurve" smooth="yes"/>
			<point x="917" y="1027"/>
			<point x="747.1051635742" y="1392.5032958984"/>
			<point x="591.885559082" y="1392.5032958984" type="qcurve" smooth="yes"/>
			<point x="431.6659545898" y="1392.5032958984"/>
			<point x="259" y="1060"/>
		</contour>
	</outline>
</glyph>
<glyph name="one" format="2">
	<unicode hex="0031"/>
	<advance width="763"/>
	<outline>
		<contour>
			<point x="63.1861572266" y="0" type="line"/>
			<point x="63.1861572266" y="93.0006103516" type="line"/>
			<point x="320.1828613281" y="121.0006103516" type="line"/>
			<point x="322.1828613281" y="751.8411865234" type="line"/>
			<point x="320.1828613281" y="1382.5738525391" type="line"/>
			<point x="83.9700927734" y="1397.5032958984" type="line"/>
			<point x="83.9700927734" y="1494.0032958984" type="line"/>
			<point x="471.8187255859" y="1503.0032958984" type="line"/>
			<point x="497.4497070312" y="1473.5032958984" type="line"/>
			<point x="494.8187255859" y="751.8411865234" type="line"/>
			<point x="496.8187255859" y="121.0006103516" type="line"/>
			<point x="745.8154296875" y="93.0006103516" type="line"/>
			<point x="745.8154296875" y="0" type="line"/>
		</contour>
	</outline>
</glyph>
<glyph name="two" format="2">
	<unicode hex="0032"/>
	<advance width="993"/>
	<outline>
		<contour>
			<point x="66.6208496094" y="-0.5" type="line"/>
			<point x="66.6208496094" y="91" type="line"/>
			<point x="77.434387207" y="231.1165771484"/>
			<point x="222.6866455078" y="517.7064208984"/>
			<point x="394.2775268555" y="668.5053710938" type="qcurve" smooth="yes"/>
			<point x="486.5177612305" y="737.7809448242"/>
			<point x="706.2042236328" y="988.4276733398"/>
			<point x="706.2042236328" y="1131.8262939453" type="qcurve" smooth="yes"/>
			<point x="706.2042236328" y="1245.1989135742"/>
			<point x="568.7877807617" y="1383.5032958984"/>
			<point x="453.4359741211" y="1383.5032958984" type="qcurve" smooth="yes"/>
			<point x="340.4235839844" y="1383.5032958984"/>
			<point x="215.254699707" y="1292.3419799805"/>
			<point x="181.6208496094" y="1209.3156738281" type="qcurve"/>
			<point x="87.6208496094" y="1282.140625" type="line"/>
			<point x="129.2684326172" y="1386.4702148438"/>
			<point x="328.0529785156" y="1514.0032958984"/>
			<point x="500.3482055664" y="1514.0032958984" type="qcurve" smooth="yes"/>
			<point x="672.3189086914" y="1514.0032958984"/>
			<point x="899.9357910156" y="1341.8188476562"/>
			<point x="899.9357910156" y="1173.5659179688" type="qcurve" smooth="yes"/>
			<point x="899.9357910156" y="960.3015136719"/>
			<point x="638.2578735352" y="668.821472168"/>
			<point x="526.3013305664" y="584.48046875" type="qcurve" smooth="yes"/>
			<point x="338.217956543" y="429.3733520508"/>
			<point x="250.2503051758" y="269.8057250977"/>
			<point x="229.9797363281" y="176.2780761719" type="qcurve"/>
			<point x="233.9797363281" y="169.3260498047" type="line"/>
			<point x="941.0693969727" y="169.3260498047" type="line"/>
			<point x="941.0693969727" y="-0.5" type="line"/>
		</contour>
	</outline>
</glyph>
<glyph name="three" format="2">
	<unicode hex="0033"/>
	<advance width="1019"/>
	<outline>
		<contour>
			<point x="3.8370361328" y="170" type="qcurve"/>
			<point x="92.8370361328" y="267" type="line"/>
			<point x="164.5246582031" y="162"/>
			<point x="281.2111206055" y="92"/>
			<point x="398.8575439453" y="92" type="qcurve" smooth="yes"/>
			<point x="555.571472168" y="92"/>
			<point x="732.0954589844" y="264.2564086914"/>
			<point x="732.0954589844" y="417.0368041992" type="qcurve" smooth="yes"/>
			<point x="732.0954589844" y="571.197265625"/>
			<point x="480.9376220703" y="717.9057006836"/>
			<point x="279.4685668945" y="716.4057006836" type="qcurve" smooth="yes"/>
			<point x="239.0234985352" y="716.4057006836" type="line"/>
			<point x="209.4971923828" y="823.3817138672" type="line"/>
			<point x="281.7385864258" y="823.6654663086" type="line" smooth="yes"/>
			<point x="456.2625732422" y="822.4012451172"/>
			<point x="704.2716674805" y="984.542175293"/>
			<point x="704.2716674805" y="1134.774597168" type="qcurve" smooth="yes"/>
			<point x="704.2716674805" y="1267.5789794922"/>
			<point x="540.0039672852" y="1390.479309082"/>
			<point x="432.5726318359" y="1390.479309082" type="qcurve" smooth="yes"/>
			<point x="320.4399414062" y="1390.479309082"/>
			<point x="189.2534790039" y="1297.1535644531"/>
			<point x="141.849609375" y="1218.2088623047" type="qcurve"/>
			<point x="52.5120849609" y="1308.7437133789" type="line"/>
			<point x="119.0076293945" y="1403.9725341797"/>
			<point x="344.322265625" y="1513.9553222656"/>
			<point x="476.1915893555" y="1513.9553222656" type="qcurve" smooth="yes"/>
			<point x="659.1585083008" y="1513.9553222656"/>
			<point x="886.2173461914" y="1339.6749267578"/>
			<point x="886.2173461914" y="1179.274597168" type="qcurve" smooth="yes"/>
			<point x="886.2173461914" y="1021.8742675781"/>
			<point x="682.9804077148" y="817.5938720703"/>
			<point x="504.8846435547" y="786.7617797852" type="qcurve"/>
			<point x="506.7775878906" y="781.809753418" type="line"/>
			<point x="684.6113891602" y="761.9057006836"/>
			<point x="918.2813110352" y="575.7452392578"/>
			<point x="918.2813110352" y="392.4168701172" type="qcurve" smooth="yes"/>
			<point x="918.2813110352" y="191.1604614258"/>
			<point x="669.1802978516" y="-29"/>
			<point x="456.212890625" y="-29" type="qcurve" smooth="yes"/>
			<point x="293.3857421875" y="-29"/>
			<point x="65.0980834961" y="83.5537719727"/>
		</contour>
	</outline>
</glyph>
<glyph name="four" format="2">
	<unicode hex="0034"/>
	<advance width="967"/>
	<outline>
		<contour>
			<point x="-1.8115234375" y="534.1770019531" type="line"/>
			<point x="619.8756713867" y="1522.4830322266" type="line"/>
			<point x="710.6640014648" y="1524.4830322266" type="line"/>
			<point x="750.5934448242" y="1481.4830322266" type="line"/>
			<point x="748.5934448242" y="478.6770019531" type="line"/>
			<point x="748.5934448242" y="121.0006103516" type="line"/>
			<point x="953.3114624023" y="93.0006103516" type="line"/>
			<point x="953.3114624023" y="0" type="line"/>
			<point x="363.8255004883" y="0" type="line"/>
			<point x="363.8255004883" y="93.0006103516" type="line"/>
			<point x="578.6364135742" y="121.0006103516" type="line"/>
			<point x="581.6364135742" y="475.6770019531" type="line"/>
			<point x="584.6364135742" y="1316.6491699219" type="line"/>
			<point x="133.6312866211" y="533.8795166016" type="line"/>
			<point x="136.6312866211" y="527.8795166016" type="line"/>
			<point x="946.2775878906" y="526.1770019531" type="line"/>
			<point x="946.2775878906" y="423.1770019531" type="line"/>
			<point x="-1.8115234375" y="423.1770019531" type="line"/>
		</contour>
	</outline>
</glyph>
<glyph name="five" format="2">
	<unicode hex="0035"/>
	<advance width="1004"/>
	<outline>
		<contour>
			<point x="-10.4600830078" y="169" type="qcurve"/>
			<point x="79.4586791992" y="264.0239868164" type="line"/>
			<point x="117.1737670898" y="205.9827880859"/>
			<point x="276.0478515625" y="95.5"/>
			<point x="432.0581054688" y="95.5" type="qcurve" smooth="yes"/>
			<point x="574.5145874023" y="95.5"/>
			<point x="752.2536621094" y="301.3043823242"/>
			<point x="752.2536621094" y="515.5607910156" type="qcurve" smooth="yes"/>
			<point x="752.2536621094" y="698.8411865234"/>
			<point x="496.4757080078" y="811.049621582"/>
			<point x="309.1439819336" y="808.049621582" type="qcurve" smooth="yes"/>
			<point x="134.3087768555" y="805.049621582" type="line"/>
			<point x="120.3087768555" y="826.8337402344" type="line"/>
			<point x="144.3087768555" y="1469.3870849609" type="line"/>
			<point x="162.3087768555" y="1494.3870849609" type="line"/>
			<point x="830.5768432617" y="1494.3870849609" type="line"/>
			<point x="821.4157714844" y="1330.7512207031" type="line"/>
			<point x="249.9989624023" y="1330.7512207031" type="line"/>
			<point x="241.9989624023" y="1321.7512207031" type="line"/>
			<point x="233.8087768555" y="912.0736083984" type="line"/>
			<point x="362.6817016602" y="919.9296875" type="line"/>
			<point x="622.2451171875" y="923.0509643555"/>
			<point x="934.3063964844" y="720.1755981445"/>
			<point x="934.3063964844" y="497.844909668" type="qcurve" smooth="yes"/>
			<point x="934.3063964844" y="224.112487793"/>
			<point x="681.6430664062" y="-29"/>
			<point x="470.8940429688" y="-29" type="qcurve" smooth="yes"/>
			<point x="296.567565918" y="-29"/>
			<point x="63.9577636719" y="80.8237915039"/>
		</contour>
	</outline>
</glyph>
<glyph name="six" format="2">
	<unicode hex="0036"/>
	<advance width="1134"/>
	<outline>
		<contour>
			<point x="73.9989013672" y="636.577331543" type="qcurve" smooth="yes"/>
			<point x="73.9989013672" y="1006.2888183594"/>
			<point x="474.2658691406" y="1462.3766479492"/>
			<point x="822.2504882812" y="1535.0032958984" type="qcurve"/>
			<point x="851.2379150391" y="1421.8431396484" type="line"/>
			<point x="595.33984375" y="1364.7222900391"/>
			<point x="260.0516357422" y="983.7340698242"/>
			<point x="260.0516357422" y="636.577331543" type="qcurve" smooth="yes"/>
			<point x="260.0516357422" y="387.2551269531"/>
			<point x="459.1728515625" y="81"/>
			<point x="602.3924560547" y="81" type="qcurve" smooth="yes"/>
			<point x="727.6120605469" y="81"/>
			<point x="892.2893676758" y="310.5416870117"/>
			<point x="896.2893676758" y="477.1770019531" type="qcurve" smooth="yes"/>
			<point x="899.2893676758" y="640.2943115234"/>
			<point x="740.0445556641" y="805.7617797852"/>
			<point x="628.3249511719" y="805.7617797852" type="qcurve" smooth="yes"/>
			<point x="542.1072998047" y="805.7617797852"/>
			<point x="444.2052001953" y="764.0832519531"/>
			<point x="426.4040527344" y="751.8861694336" type="qcurve"/>
			<point x="388.3449707031" y="829.1942749023" type="line"/>
			<point x="424.2955932617" y="851.164855957"/>
			<point x="559.3660888672" y="909.4019775391"/>
			<point x="654.5902099609" y="910.4019775391" type="qcurve" smooth="yes"/>
			<point x="858.1701660156" y="912.4019775391"/>
			<point x="1093.5448608398" y="711.3134765625"/>
			<point x="1092.5448608398" y="487.6615600586" type="qcurve" smooth="yes"/>
			<point x="1091.5448608398" y="251.9445800781"/>
			<point x="843.8544921875" y="-30"/>
			<point x="606.6455078125" y="-30" type="qcurve" smooth="yes"/>
			<point x="347.2454223633" y="-30"/>
			<point x="73.9989013672" y="321.387878418"/>
		</contour>
	</outline>
</glyph>
<glyph name="seven" format="2">
	<unicode hex="0037"/>
	<advance width="842"/>
	<outline>
		<contour>
			<point x="-1.037109375" y="1092.7956542969" type="line"/>
			<point x="20.8061523438" y="1494.3870849609" type="line"/>
			<point x="823.2534790039" y="1494.3870849609" type="line"/>
			<point x="823.2534790039" y="1405.2183837891" type="line"/>
			<point x="516.960144043" y="672.3874511719" type="line"/>
			<point x="304.9710083008" y="-5" type="line"/>
			<point x="104.4535522461" y="-5" type="line"/>
			<point x="104.4535522461" y="49.5490722656" type="line"/>
			<point x="382.9690551758" y="719.1969604492" type="line"/>
			<point x="612.201965332" y="1317.7990722656" type="line"/>
			<point x="610.201965332" y="1325.7990722656" type="line"/>
			<point x="171.4992675781" y="1325.7990722656" type="line"/>
			<point x="120.9658203125" y="1092.7956542969" type="line"/>
		</contour>
	</outline>
</glyph>
<glyph name="eight" format="2">
	<unicode hex="0038"/>
	<advance width="925"/>
	<outline>
		<contour>
			<point x="22.5399169922" y="350.7766723633" type="qcurve" smooth="yes"/>
			<point x="22.5399169922" y="518.6303710938"/>
			<point x="237.4379272461" y="756.5736694336"/>
			<point x="340.7849121094" y="827.1833496094" type="qcurve"/>
			<point x="415.581237793" y="773.1257324219" type="line"/>
			<point x="308.4815063477" y="682.8217163086"/>
			<point x="157.0399169922" y="478.1725463867"/>
			<point x="157.0399169922" y="356.2047119141" type="qcurve" smooth="yes"/>
			<point x="157.0399169922" y="215.7564086914"/>
			<point x="314.3327636719" y="83"/>
			<point x="465.3555908203" y="83" type="qcurve" smooth="yes"/>
			<point x="590.1633300781" y="83"/>
			<point x="721.4222412109" y="223.852355957"/>
			<point x="725.4222412109" y="371.3005981445" type="qcurve" smooth="yes"/>
			<point x="727.4222412109" y="514.9857177734"/>
			<point x="567.7930908203" y="649.3201293945"/>
			<point x="423.6106567383" y="717.5153198242" type="qcurve" smooth="yes"/>
			<point x="229.4655761719" y="822.7994995117"/>
			<point x="63.2177734375" y="1017.7798461914"/>
			<point x="65.2177734375" y="1211.9795532227" type="qcurve" smooth="yes"/>
			<point x="67.2177734375" y="1359.3319091797"/>
			<point x="293.4528808594" y="1512.1951904297"/>
			<point x="431.1530761719" y="1512.1951904297" type="qcurve" smooth="yes"/>
			<point x="586.1232910156" y="1512.1951904297"/>
			<point x="782.3497924805" y="1349.9147949219"/>
			<point x="781.3497924805" y="1214.4664916992" type="qcurve" smooth="yes"/>
			<point x="780.3497924805" y="1064.4942016602"/>
			<point x="616.0546264648" y="854.7857666016"/>
			<point x="530.5164794922" y="783.7285766602" type="qcurve"/>
			<point x="446.7476196289" y="840.0126953125" type="line"/>
			<point x="516.1770629883" y="915.0938720703"/>
			<point x="643.8497924805" y="1059.0661621094"/>
			<point x="644.3497924805" y="1191.9664916992" type="qcurve" smooth="yes"/>
			<point x="644.8497924805" y="1311.3908081055"/>
			<point x="519.3809814453" y="1401.7191772461"/>
			<point x="448.5825195312" y="1401.7191772461" type="qcurve" smooth="yes"/>
			<point x="355.1904907227" y="1401.7191772461"/>
			<point x="215.6622314453" y="1309.2600097656"/>
			<point x="213.6622314453" y="1209.8002929688" type="qcurve" smooth="yes"/>
			<point x="211.6622314453" y="1098.4287719727"/>
			<point x="312.2721557617" y="968.5529174805"/>
			<point x="489.9323730469" y="875.6986083984" type="qcurve" smooth="yes"/>
			<point x="658.5343017578" y="794.305847168"/>
			<point x="883.9624023438" y="584.5668945312"/>
			<point x="883.9624023438" y="380.7172241211" type="qcurve" smooth="yes"/>
			<point x="883.9624023438" y="192.4243164062"/>
			<point x="636.5965576172" y="-30"/>
			<point x="479.4235839844" y="-30" type="qcurve" smooth="yes"/>
			<point x="255.1084594727" y="-30"/>
			<point x="22.5399169922" y="183.9243164062"/>
		</contour>
	</outline>
</glyph>
<glyph name="nine" format="2">
	<unicode hex="0039"/>
	<advance width="1133"/>
	<outline>
		<contour>
			<point x="41.5127563477" y="1022.9462280273" type="qcurve" smooth="yes"/>
			<point x="42.5127563477" y="1243.0587158203"/>
			<point x="282.4707641602" y="1514.979309082"/>
			<point x="518.3311767578" y="1514.979309082" type="qcurve" smooth="yes"/>
			<point x="774.6948242188" y="1514.979309082"/>
			<point x="1059.2074584961" y="1173.2390136719"/>
			<point x="1059.2074584961" y="848.4259643555" type="qcurve" smooth="yes"/>
			<point x="1059.2074584961" y="483.9378662109"/>
			<point x="656.3574829102" y="21.6993408203"/>
			<point x="304.0150756836" y="-51.8025512695" type="qcurve"/>
			<point x="275.5951538086" y="61.0978393555" type="line"/>
			<point x="530.7769775391" y="116.5836791992"/>
			<point x="866.2139282227" y="501.2452392578"/>
			<point x="866.2139282227" y="848.4019775391" type="qcurve" smooth="yes"/>
			<point x="866.2139282227" y="1105.0933837891"/>
			<point x="669.3147583008" y="1403.979309082"/>
			<point x="526.3350219727" y="1403.979309082" type="qcurve" smooth="yes"/>
			<point x="400.8035888672" y="1403.979309082"/>
			<point x="235.8274536133" y="1191.9834594727"/>
			<point x="231.8274536133" y="1033.8262939453" type="qcurve" smooth="yes"/>
			<point x="227.8274536133" y="847.5344848633"/>
			<point x="405.7736206055" y="677.7987670898"/>
			<point x="531.4932250977" y="677.7987670898" type="qcurve" smooth="yes"/>
			<point x="585.7895507812" y="677.7987670898"/>
			<point x="682.2197265625" y="719.2655029297"/>
			<point x="700.3570556641" y="729.2072753906" type="qcurve"/>
			<point x="740.3810424805" y="653.7987670898" type="line"/>
			<point x="705.0374145508" y="633.6225585938"/>
			<point x="584.2425537109" y="574.0825195312"/>
			<point x="475.2608642578" y="573.0825195312" type="qcurve" smooth="yes"/>
			<point x="274.6254882812" y="571.0825195312"/>
			<point x="40.5127563477" y="782.9544067383"/>
		</contour>
	</outline>
</glyph>
<glyph name="B" format="2">
	<unicode hex="0042"/>
	<advance width="1395"/>
	<outline>
		<contour>
			<point x="82.0052490234" y="0" type="line"/>
			<point x="82.0052490234" y="99.9997558594" type="line"/>
			<point x="290.0042724609" y="133.9997558594" type="line"/>
			<point x="292.0042724609" y="765.9240722656" type="line"/>
			<point x="291.0042724609" y="1361.1602783203" type="line"/>
			<point x="82.0052490234" y="1395.1602783203" type="line"/>
			<point x="82.0052490234" y="1500" type="line"/>
			<point x="710.3128051758" y="1500" type="line" smooth="yes"/>
			<point x="956.6380615234" y="1500"/>
			<point x="1172.8374633789" y="1321"/>
			<point x="1172.8374633789" y="1165" type="qcurve" smooth="yes"/>
			<point x="1172.8374633789" y="1017"/>
			<point x="1020.3641357422" y="856"/>
			<point x="911.9859008789" y="831" type="qcurve"/>
			<point x="911.9859008789" y="826" type="line"/>
			<point x="1054.643371582" y="805"/>
			<point x="1193" y="604"/>
			<point x="1301.4596557617" y="439" type="qcurve" smooth="yes"/>
			<point x="1301.4596557617" y="233"/>
			<point x="989.9234619141" y="0"/>
			<point x="746.2059326172" y="0" type="qcurve" smooth="yes"/>
		</contour>
		<contour>
			<point x="468.6423339844" y="141.4282226562" type="line"/>
			<point x="494.3815917969" y="124.4545898438" type="line"/>
			<point x="731.8551025391" y="124.4545898438" type="line" smooth="yes"/>
			<point x="896.1897583008" y="124.4545898438"/>
			<point x="1112.9844360352" y="248.0482788086"/>
			<point x="1112.9844360352" y="437" type="qcurve" smooth="yes"/>
			<point x="1112.9844360352" y="592.1926879883"/>
			<point x="915.5713500977" y="735.0622558594"/>
			<point x="754.2723388672" y="735.0622558594" type="qcurve" smooth="yes"/>
			<point x="468.9085693359" y="735.0622558594" type="line"/>
			<point x="464.7237548828" y="724.6722412109" type="line"/>
		</contour>
		<contour>
			<point x="465.0842285156" y="865.314453125" type="line"/>
			<point x="470.9728393555" y="854.9200439453" type="line"/>
			<point x="728.4621582031" y="854.9200439453" type="line" smooth="yes"/>
			<point x="848.8665161133" y="854.9200439453"/>
			<point x="984.8389282227" y="1018.2048950195"/>
			<point x="984.8389282227" y="1161" type="qcurve" smooth="yes"/>
			<point x="984.8389282227" y="1298.602355957"/>
			<point x="855.2361450195" y="1367.5933837891"/>
			<point x="686.8317871094" y="1367.5933837891" type="qcurve" smooth="yes"/>
			<point x="499.0211181641" y="1367.5933837891" type="line"/>
			<point x="469.2818603516" y="1347.9159545898" type="line"/>
		</contour>
	</outline>
	<anchor name="bottom" x="614" y="0"/>
	<anchor name="top" x="614" y="1500"/>
</glyph>
<glyph name="C" format="2">
	<unicode hex="0043"/>
	<advance width="1344"/>
	<outline>
		<contour>
			<point x="81.001953125" y="699" type="qcurve" smooth="yes"/>
			<point x="81.001953125" y="1086"/>
			<point x="529.3262939453" y="1513"/>
			<point x="818.7421264648" y="1513" type="qcurve" smooth="yes"/>
			<point x="954.4385986328" y="1513"/>
			<point x="1122.8759155273" y="1426"/>
			<point x="1167.2717895508" y="1372" type="qcurve"/>
			<point x="1200.9701538086" y="1499" type="line"/>
			<point x="1293.5288085938" y="1499" type="line"/>
			<point x="1293.5288085938" y="1030.8330078125" type="line"/>
			<point x="1185.5109863281" y="1030.8330078125" type="line"/>
			<point x="1164.1604003906" y="1186" type="line" smooth="yes"/>
			<point x="1147.1983642578" y="1330"/>
			<point x="999.4213867188" y="1379.7869873047"/>
			<point x="854.964050293" y="1379.7869873047" type="qcurve" smooth="yes"/>
			<point x="599.8733520508" y="1379.7869873047"/>
			<point x="269.0352783203" y="1042.8070678711"/>
			<point x="270.0352783203" y="716" type="qcurve" smooth="yes"/>
			<point x="270.0352783203" y="403.3375244141"/>
			<point x="619.6365966797" y="121.841796875"/>
			<point x="872.0076904297" y="121.841796875" type="qcurve" smooth="yes"/>
			<point x="1038.8342285156" y="121.841796875"/>
			<point x="1197.5480957031" y="235.8258056641"/>
			<point x="1238.4658203125" y="317.5505371094" type="qcurve"/>
			<point x="1332.1779785156" y="245" type="line"/>
			<point x="1283.7399291992" y="148"/>
			<point x="1023.4612426758" y="-23"/>
			<point x="853.2105102539" y="-23" type="qcurve" smooth="yes"/>
			<point x="507.7004394531" y="-23"/>
			<point x="81.001953125" y="380"/>
		</contour>
	</outline>
	<anchor name="bottom" x="836" y="0"/>
	<anchor name="top" x="836" y="1500"/>
</glyph>
<glyph name="F" format="2">
	<unicode hex="0046"/>
	<advance width="1233"/>
	<outline>
		<contour>
			<point x="82.0052490234" y="0" type="line"/>
			<point x="82.0052490234" y="99.9997558594" type="line"/>
			<point x="291.0042724609" y="132.9997558594" type="line"/>
			<point x="293.0042724609" y="757" type="line"/>
			<point x="291.0042724609" y="1361.1602783203" type="line"/>
			<point x="82.0052490234" y="1395.1602783203" type="line"/>
			<point x="82.0052490234" y="1500" type="line"/>
			<point x="1190.2737426758" y="1500" type="line"/>
			<point x="1190.2737426758" y="1080.6593017578" type="line"/>
			<point x="1083.2733764648" y="1080.6593017578" type="line"/>
			<point x="1060.2733764648" y="1376.7550048828" type="line"/>
			<point x="486.6423339844" y="1376.7550048828" type="line"/>
			<point x="468.6423339844" y="1350.7550048828" type="line"/>
			<point x="465.36328125" y="763" type="line"/>
			<point x="468.6423339844" y="136.9997558594" type="line"/>
			<point x="698.5258789062" y="99.9997558594" type="line"/>
			<point x="698.5258789062" y="0" type="line"/>
		</contour>
		<contour>
			<point x="401.0035400391" y="714.353515625" type="line"/>
			<point x="401.0035400391" y="824.0496826172" type="line"/>
			<point x="921.3868408203" y="830.2272949219" type="line"/>
			<point x="940.3868408203" y="1028.5034179688" type="line"/>
			<point x="1050.3872070312" y="1028.5034179688" type="line"/>
			<point x="1050.3872070312" y="490.3541259766" type="line"/>
			<point x="940.3868408203" y="490.3541259766" type="line"/>
			<point x="921.3868408203" y="710.1759033203" type="line"/>
		</contour>
	</outline>
	<anchor name="bottom" x="578" y="0"/>
	<anchor name="top" x="622" y="1500"/>
</glyph>
<glyph name="G" format="2">
	<unicode hex="0047"/>
	<advance width="1610"/>
	<outline>
		<contour>
			<point x="81.001953125" y="710" type="qcurve" smooth="yes"/>
			<point x="81.001953125" y="1120"/>
			<point x="522.5552978516" y="1513"/>
			<point x="827.0405883789" y="1513" type="qcurve" smooth="yes"/>
			<point x="983.9278564453" y="1513"/>
			<point x="1156.6342163086" y="1428.9680175781"/>
			<point x="1197.0581665039" y="1371.9360351562" type="qcurve"/>
			<point x="1237.518737793" y="1499" type="line"/>
			<point x="1329.4645385742" y="1499" type="line"/>
			<point x="1329.4645385742" y="1030.7060546875" type="line"/>
			<point x="1210.5012817383" y="1030.7060546875" type="line"/>
			<point x="1195.4277954102" y="1183" type="line" smooth="yes"/>
			<point x="1182.4277954102" y="1329"/>
			<point x="961.4899902344" y="1375.8189697266"/>
			<point x="836.8718261719" y="1375.8189697266" type="qcurve" smooth="yes"/>
			<point x="597.4403076172" y="1375.8189697266"/>
			<point x="265.6748046875" y="1044.578125"/>
			<point x="267.6748046875" y="725" type="qcurve" smooth="yes"/>
			<point x="267.6748046875" y="424.5424194336"/>
			<point x="621.2756958008" y="111.0354003906"/>
			<point x="918.137878418" y="111.0354003906" type="qcurve" smooth="yes"/>
			<point x="1025.3210449219" y="111.0354003906"/>
			<point x="1197.5667724609" y="155.6801757812"/>
			<point x="1260.5972290039" y="187.8897705078" type="qcurve"/>
			<point x="1260.5972290039" y="530.0002441406" type="line"/>
			<point x="1063.8962402344" y="557.0002441406" type="line"/>
			<point x="1063.8962402344" y="663" type="line"/>
			<point x="1597.3731689453" y="663" type="line"/>
			<point x="1597.3731689453" y="557.0002441406" type="line"/>
			<point x="1431.4795532227" y="530.0002441406" type="line"/>
			<point x="1431.4795532227" y="107" type="line"/>
			<point x="1373.5915527344" y="50"/>
			<point x="1104.604309082" y="-21"/>
			<point x="905.2537231445" y="-21" type="qcurve" smooth="yes"/>
			<point x="545.8820800781" y="-21"/>
			<point x="81.001953125" y="359"/>
		</contour>
	</outline>
	<anchor name="bottom" x="872" y="0"/>
	<anchor name="top" x="836" y="1500"/>
</glyph>
<glyph name="K" format="2">
	<unicode hex="004B"/>
	<advance width="1410"/>
	<outline>
		<contour>
			<point x="82.0052490234" y="0" type="line"/>
			<point x="82.0052490234" y="99.9997558594" type="line"/>
			<point x="290.0042724609" y="134.9997558594" type="line"/>
			<point x="292.0042724609" y="754" type="line"/>
			<point x="290.0042724609" y="1361.1602783203" type="line"/>
			<point x="82.0052490234" y="1395.1602783203" type="line"/>
			<point x="82.0052490234" y="1500" type="line"/>
			<point x="687.1990966797" y="1500" type="line"/>
			<point x="687.1990966797" y="1395.1602783203" type="line"/>
			<point x="470.6423339844" y="1361.1602783203" type="line"/>
			<point x="467.36328125" y="754" type="line"/>
			<point x="470.6423339844" y="134.9997558594" type="line"/>
			<point x="678.6413574219" y="99.9997558594" type="line"/>
			<point x="678.6413574219" y="0" type="line"/>
		</contour>
		<contour>
			<point x="363.4560546875" y="428.150390625" type="line"/>
			<point x="360.4560546875" y="570.6070556641" type="line"/>
			<point x="1065.8397216797" y="1375.1602783203" type="line"/>
			<point x="884.6384887695" y="1395.1602783203" type="line"/>
			<point x="884.6384887695" y="1500" type="line"/>
			<point x="1384.6610107422" y="1500" type="line"/>
			<point x="1384.6610107422" y="1395.1602783203" type="line"/>
			<point x="1225.9887695312" y="1375.1602783203" type="line"/>
			<point x="747.4285888672" y="857.6325683594" type="line"/>
			<point x="736.5755615234" y="842.2971191406" type="line"/>
		</contour>
		<contour>
			<point x="626.9692382812" y="813.3090820312" type="line"/>
			<point x="738.7308349609" y="929.7956542969" type="line"/>
			<point x="1301.6489257812" y="133.9997558594" type="line"/>
			<point x="1489.2924194336" y="99.9997558594" type="line"/>
			<point x="1489.2924194336" y="0" type="line"/>
			<point x="919.4322509766" y="0" type="line"/>
			<point x="919.4322509766" y="99.9997558594" type="line"/>
			<point x="1098.6622314453" y="133.9997558594" type="line"/>
		</contour>
	</outline>
	<anchor name="bottom" x="812" y="0"/>
	<anchor name="top" x="770" y="1500"/>
</glyph>
<glyph name="L" format="2">
	<unicode hex="004C"/>
	<advance width="1276"/>
	<outline>
		<contour>
			<point x="82.0052490234" y="0" type="line"/>
			<point x="82.0052490234" y="99.9997558594" type="line"/>
			<point x="291.0042724609" y="137.9997558594" type="line"/>
			<point x="293.0042724609" y="754" type="line"/>
			<point x="290.0042724609" y="1361.1602783203" type="line"/>
			<point x="81.0052490234" y="1395.1602783203" type="line"/>
			<point x="81.0052490234" y="1500" type="line"/>
			<point x="707.9585571289" y="1500" type="line"/>
			<point x="707.9585571289" y="1395.1602783203" type="line"/>
			<point x="470.6423339844" y="1361.1602783203" type="line"/>
			<point x="467.36328125" y="754" type="line"/>
			<point x="468.6423339844" y="140.2769775391" type="line"/>
			<point x="491.6423339844" y="117.2769775391" type="line"/>
			<point x="1037.9466552734" y="117.2769775391" type="line"/>
			<point x="1108.9466552734" y="466.1922607422" type="line"/>
			<point x="1225.0561523438" y="466.1922607422" type="line"/>
			<point x="1183.89453125" y="0" type="line"/>
		</contour>
	</outline>
	<anchor name="bottom" x="705" y="0"/>
	<anchor name="centerright" x="928" y="750"/>
	<anchor name="top" x="632" y="1500"/>
	<anchor name="topright" x="784" y="1001"/>
	<anchor name="center" x="378" y="750"/>
	<anchor name="liga" x="1264" y="0"/>
</glyph>
<glyph name="O" format="2">
	<unicode hex="004F"/>
	<advance width="1650"/>
	<outline>
		<contour>
			<point x="81.001953125" y="731.4071044922" type="qcurve" smooth="yes"/>
			<point x="81.001953125" y="1070"/>
			<point x="495.0549316406" y="1520"/>
			<point x="830.0947875977" y="1520" type="qcurve" smooth="yes"/>
			<point x="1166.8041381836" y="1520"/>
			<point x="1569.0322875977" y="1099"/>
			<point x="1569.0322875977" y="756" type="qcurve" smooth="yes"/>
			<point x="1569.0322875977" y="429"/>
			<point x="1161.1469726562" y="-22"/>
			<point x="823.8280639648" y="-22" type="qcurve" smooth="yes"/>
			<point x="502.3040161133" y="-22"/>
			<point x="81.001953125" y="390.2094726562"/>
		</contour>
		<contour>
			<point x="265.6748046875" y="783" type="qcurve" smooth="yes"/>
			<point x="265.6748046875" y="480.0484619141"/>
			<point x="567.6163330078" y="115.6002197266"/>
			<point x="824.5490112305" y="115.6002197266" type="qcurve" smooth="yes"/>
			<point x="1092.5521850586" y="115.6002197266"/>
			<point x="1386.3594360352" y="439.7954101562"/>
			<point x="1386.3594360352" y="753" type="qcurve" smooth="yes"/>
			<point x="1386.3594360352" y="1036.794921875"/>
			<point x="1094.1272583008" y="1377.6253662109"/>
			<point x="834.1419067383" y="1377.6253662109" type="qcurve" smooth="yes"/>
			<point x="563.1387329102" y="1377.6253662109"/>
			<point x="265.6748046875" y="1064.9997558594"/>
		</contour>
	</outline>
	<anchor name="bottom" x="832" y="0"/>
	<anchor name="center" x="832" y="750"/>
	<anchor name="ogonek" x="1064" y="0"/>
	<anchor name="top" x="832" y="1500"/>
	<anchor name="topright" x="1028" y="1500"/>
	<anchor name="tonos" x="140" y="1500"/>
	<anchor name="_yu_dash" x="169" y="755"/>
</glyph>
<glyph name="P" format="2">
	<unicode hex="0050"/>
	<advance width="1336"/>
	<outline>
		<contour>
			<point x="82.0052490234" y="0" type="line"/>
			<point x="82.0052490234" y="98.9997558594" type="line"/>
			<point x="291.0042724609" y="134.9997558594" type="line"/>
			<point x="295.8757324219" y="762" type="line"/>
			<point x="292.0042724609" y="1361.1602783203" type="line"/>
			<point x="83.0052490234" y="1395.1602783203" type="line"/>
			<point x="83.0052490234" y="1500" type="line"/>
			<point x="777.742980957" y="1500" type="line" smooth="yes"/>
			<point x="998.8807983398" y="1500"/>
			<point x="1279.5660400391" y="1299"/>
			<point x="1279.5660400391" y="1092" type="qcurve" smooth="yes"/>
			<point x="1279.5660400391" y="876"/>
			<point x="978.2439575195" y="595.1119384766"/>
			<point x="732.5603637695" y="595.1119384766" type="qcurve" smooth="yes"/>
			<point x="615.0928955078" y="595.1119384766"/>
			<point x="449.43359375" y="606.5151367188"/>
			<point x="385.1956787109" y="614.5311279297" type="qcurve"/>
			<point x="390.9514160156" y="724.2113037109" type="line"/>
			<point x="458.54296875" y="714.8081054688"/>
			<point x="605.0291137695" y="715.3729248047"/>
			<point x="712.08203125" y="715.3729248047" type="qcurve" smooth="yes"/>
			<point x="885.1533203125" y="715.3729248047"/>
			<point x="1101.7303466797" y="903.9037475586"/>
			<point x="1101.7303466797" y="1094" type="qcurve" smooth="yes"/>
			<point x="1101.7303466797" y="1267.3372802734"/>
			<point x="896.7344970703" y="1378.7550048828"/>
			<point x="715.9962768555" y="1378.7550048828" type="qcurve" smooth="yes"/>
			<point x="494.2818603516" y="1378.7550048828" type="line"/>
			<point x="470.2818603516" y="1358.7550048828" type="line"/>
			<point x="466.36328125" y="766" type="line"/>
			<point x="469.6423339844" y="136.9997558594" type="line"/>
			<point x="698.5258789062" y="99.9997558594" type="line"/>
			<point x="698.5258789062" y="0" type="line"/>
		</contour>
	</outline>
	<anchor name="bottom" x="634" y="0"/>
	<anchor name="top" x="634" y="1500"/>
</glyph>
<glyph name="S" format="2">
	<unicode hex="0053"/>
	<advance width="1161"/>
	<outline>
		<contour>
			<point x="60.7170410156" y="0" type="line"/>
			<point x="60.7170410156" y="536.5551757812" type="line"/>
			<point x="171.6806640625" y="536.5551757812" type="line"/>
			<point x="194.7719726562" y="360.8258056641" type="line" smooth="yes"/>
			<point x="207.7719726562" y="263.8258056641"/>
			<point x="406.4240722656" y="110.8258056641"/>
			<point x="587.8229980469" y="110.8258056641" type="qcurve" smooth="yes"/>
			<point x="758.4210205078" y="110.8258056641"/>
			<point x="938.424987793" y="247.7138671875"/>
			<point x="938.424987793" y="366.4339599609" type="qcurve" smooth="yes"/>
			<point x="938.424987793" y="507.4763793945"/>
			<point x="760.6638183594" y="634.7904052734"/>
			<point x="522.4327392578" y="712.8010864258" type="qcurve" smooth="yes"/>
			<point x="299.100402832" y="785.4508056641"/>
			<point x="96.8355712891" y="984.8017578125"/>
			<point x="96.8355712891" y="1153.5731201172" type="qcurve" smooth="yes"/>
			<point x="96.8355712891" y="1307.6513671875"/>
			<point x="338.469543457" y="1514"/>
			<point x="534.1810302734" y="1514" type="qcurve" smooth="yes"/>
			<point x="679.0017089844" y="1514"/>
			<point x="833.5141601562" y="1447.6395263672"/>
			<point x="883.6947021484" y="1401" type="qcurve"/>
			<point x="900.7856445312" y="1499" type="line"/>
			<point x="1005.7314453125" y="1499" type="line"/>
			<point x="1005.7314453125" y="1012.5090332031" type="line"/>
			<point x="896.0042724609" y="1012.5090332031" type="line"/>
			<point x="873.6947021484" y="1191.8029785156" type="line" smooth="yes"/>
			<point x="865.1585693359" y="1265.3068237305"/>
			<point x="683.8471069336" y="1381.8029785156"/>
			<point x="551.9982910156" y="1381.8029785156" type="qcurve" smooth="yes"/>
			<point x="397.3305664062" y="1381.8029785156"/>
			<point x="282.8302001953" y="1287.2254638672"/>
			<point x="282.8302001953" y="1184.1842041016" type="qcurve" smooth="yes"/>
			<point x="282.8302001953" y="1095.1159667969"/>
			<point x="394.1662597656" y="951.7946777344"/>
			<point x="637.4574584961" y="872.0415649414" type="qcurve" smooth="yes"/>
			<point x="899.9251098633" y="780.2666625977"/>
			<point x="1129.1018676758" y="578.2362060547"/>
			<point x="1129.1018676758" y="398.0229492188" type="qcurve" smooth="yes"/>
			<point x="1129.1018676758" y="220.4996337891"/>
			<point x="845.4602661133" y="-15"/>
			<point x="605.1448364258" y="-15" type="qcurve" smooth="yes"/>
			<point x="452.9234008789" y="-15"/>
			<point x="220.7384033203" y="87"/>
			<point x="179.4991455078" y="148" type="qcurve"/>
			<point x="160.7174072266" y="0" type="line"/>
		</contour>
	</outline>
	<anchor name="bottom" x="599" y="0"/>
	<anchor name="top" x="514" y="1500"/>
</glyph>
<glyph name="T" format="2">
	<unicode hex="0054"/>
	<advance width="1390"/>
	<outline>
		<contour>
			<point x="43.1950683594" y="1052.7484130859" type="line"/>
			<point x="43.1950683594" y="1500" type="line"/>
			<point x="1347.1311645508" y="1500" type="line"/>
			<point x="1347.1311645508" y="1052.7484130859" type="line"/>
			<point x="1237.1307983398" y="1052.7484130859" type="line"/>
			<point x="1202.1325073242" y="1381.7550048828" type="line"/>
			<point x="802.1498413086" y="1381.7550048828" type="line"/>
			<point x="786.1498413086" y="1369.7550048828" type="line"/>
			<point x="782.8707885742" y="754" type="line"/>
			<point x="786.1498413086" y="132.9997558594" type="line"/>
			<point x="1019.4468994141" y="98.9997558594" type="line"/>
			<point x="1019.4468994141" y="0" type="line"/>
			<point x="370.9262695312" y="0" type="line"/>
			<point x="370.9262695312" y="98.9997558594" type="line"/>
			<point x="605.5117797852" y="132.9997558594" type="line"/>
			<point x="608.7908325195" y="754" type="line"/>
			<point x="605.5117797852" y="1367.7550048828" type="line"/>
			<point x="590.5117797852" y="1381.7550048828" type="line"/>
			<point x="180.1937255859" y="1381.7550048828" type="line"/>
			<point x="154.1954345703" y="1052.7484130859" type="line"/>
		</contour>
	</outline>
	<anchor name="bottom" x="644" y="0"/>
	<anchor name="center" x="644" y="750"/>
	<anchor name="top" x="644" y="1500"/>
	<anchor name="cy_descender" x="951" y="100"/>
</glyph>
<glyph name="U" format="2">
	<unicode hex="0055"/>
	<advance width="1662"/>
	<outline>
		<contour>
			<point x="69.1549072266" y="1395.1602783203" type="line"/>
			<point x="69.1549072266" y="1500" type="line"/>
			<point x="656.3673706055" y="1500" type="line"/>
			<point x="656.3673706055" y="1395.1602783203" type="line"/>
			<point x="438.5125732422" y="1361.1602783203" type="line"/>
			<point x="438.5125732422" y="799" type="line"/>
			<point x="442.9892578125" y="462.9857177734" type="line" smooth="yes"/>
			<point x="445.5473632812" y="254.9857177734"/>
			<point x="665.7975463867" y="110.0194091797"/>
			<point x="854.6937866211" y="110.0194091797" type="qcurve" smooth="yes"/>
			<point x="1037.2739868164" y="110.0194091797"/>
			<point x="1285.762878418" y="252.0017089844"/>
			<point x="1286.7201538086" y="472.0017089844" type="qcurve" smooth="yes"/>
			<point x="1289.9137573242" y="794" type="line"/>
			<point x="1284.6087646484" y="1367.1602783203" type="line"/>
			<point x="1096.1674804688" y="1396.1602783203" type="line"/>
			<point x="1096.1674804688" y="1500" type="line"/>
			<point x="1604.4016113281" y="1500" type="line"/>
			<point x="1604.4016113281" y="1396.1602783203" type="line"/>
			<point x="1421.4025878906" y="1367.1602783203" type="line"/>
			<point x="1417.5694580078" y="794" type="line"/>
			<point x="1424.1107788086" y="436" type="line" smooth="yes"/>
			<point x="1428.9483032227" y="188"/>
			<point x="1080.4813232422" y="-21"/>
			<point x="858.028137207" y="-21" type="qcurve" smooth="yes"/>
			<point x="579.7302856445" y="-21"/>
			<point x="263.0721435547" y="175"/>
			<point x="263.7116699219" y="420" type="qcurve" smooth="yes"/>
			<point x="263.7116699219" y="799" type="line"/>
			<point x="261.7116699219" y="1361.1602783203" type="line"/>
		</contour>
	</outline>
	<anchor name="bottom" x="832" y="0"/>
	<anchor name="ogonek" x="1042" y="0"/>
	<anchor name="top" x="832" y="1500"/>
	<anchor name="topright" x="1590" y="1500"/>
</glyph>
<glyph name="Z" format="2">
	<unicode hex="005A"/>
	<advance width="1184"/>
	<outline>
		<contour>
			<point x="35.7171630859" y="0" type="line"/>
			<point x="8.9907226562" y="96.7761230469" type="line"/>
			<point x="907.2052001953" y="1382.7550048828" type="line"/>
			<point x="904.2052001953" y="1386.7550048828" type="line"/>
			<point x="232.2268066406" y="1386.7550048828" type="line"/>
			<point x="181.2624511719" y="1076.0758056641" type="line"/>
			<point x="73.1173095703" y="1076.0758056641" type="line"/>
			<point x="73.1173095703" y="1500" type="line"/>
			<point x="1116.9666748047" y="1500" type="line"/>
			<point x="1116.9666748047" y="1396.0462646484" type="line"/>
			<point x="227.8698730469" y="125.2769775391" type="line"/>
			<point x="231.8698730469" y="117.2769775391" type="line"/>
			<point x="975.6677246094" y="117.2769775391" type="line"/>
			<point x="1062.5074462891" y="456.0096435547" type="line"/>
			<point x="1166.9432373047" y="456.0096435547" type="line"/>
			<point x="1105.3608398438" y="0" type="line"/>
		</contour>
	</outline>
	<anchor name="bottom" x="583" y="0"/>
	<anchor name="top" x="583" y="1500"/>
	<anchor name="_liga" x="0" y="0"/>
</glyph>
<glyph name="a" format="2">
	<unicode hex="0061"/>
	<advance width="1075"/>
	<outline>
		<contour>
			<point x="90.5107421875" y="237.5991210938" type="qcurve" smooth="yes"/>
			<point x="90.5107421875" y="380.3986816406"/>
			<point x="405.2432250977" y="594.333190918"/>
			<point x="782.4157104492" y="648.8723754883" type="qcurve"/>
			<point x="782.4157104492" y="553.9334106445" type="line"/>
			<point x="534.2087402344" y="513.5610961914"/>
			<point x="272.1864013672" y="338.5927124023"/>
			<point x="272.1864013672" y="241.2268066406" type="qcurve" smooth="yes"/>
			<point x="272.1864013672" y="161.5687866211"/>
			<point x="373.3911743164" y="71.5933837891"/>
			<point x="446.223815918" y="71.5933837891" type="qcurve" smooth="yes"/>
			<point x="532.8739013672" y="71.5933837891"/>
			<point x="696.2781982422" y="166.9116210938"/>
			<point x="718.491027832" y="216.5762939453" type="qcurve"/>
			<point x="719.1638183594" y="737.0084838867" type="line" smooth="yes"/>
			<point x="719.768737793" y="838.6352539062"/>
			<point x="607.1944580078" y="912.2228393555"/>
			<point x="536.0057373047" y="912.2228393555" type="qcurve" smooth="yes"/>
			<point x="438.9241943359" y="912.2228393555"/>
			<point x="352.9292602539" y="884.0755615234"/>
			<point x="345.3184204102" y="872.1431274414" type="qcurve"/>
			<point x="332.6085205078" y="862.5263671875"/>
			<point x="378.3200073242" y="824.514831543"/>
			<point x="379.4185791016" y="780.465637207" type="qcurve" smooth="yes"/>
			<point x="381.568359375" y="737.9229736328"/>
			<point x="327.3286743164" y="687.3065185547"/>
			<point x="285.551574707" y="687.3065185547" type="qcurve" smooth="yes"/>
			<point x="239.7498779297" y="687.3065185547"/>
			<point x="173.4708251953" y="746.3180541992"/>
			<point x="173.4708251953" y="824.3541870117" type="qcurve" smooth="yes"/>
			<point x="173.4708251953" y="907.9837036133"/>
			<point x="362.8410644531" y="1024.3165283203"/>
			<point x="530.0922241211" y="1024.3165283203" type="qcurve" smooth="yes"/>
			<point x="705.3055419922" y="1024.3165283203"/>
			<point x="881.6732177734" y="899.4769897461"/>
			<point x="882.6732177734" y="800.8319091797" type="qcurve" smooth="yes"/>
			<point x="886.6732177734" y="107" type="line"/>
			<point x="1026.6221923828" y="80" type="line"/>
			<point x="1026.6221923828" y="0" type="line"/>
			<point x="787.23046875" y="0" type="line"/>
			<point x="751.3795776367" y="35.0115356445" type="line"/>
			<point x="717.7278442383" y="96.9994506836" type="line"/>
			<point x="676.9572143555" y="48.2291870117"/>
			<point x="495.6287841797" y="-15"/>
			<point x="383.2185058594" y="-15" type="qcurve" smooth="yes"/>
			<point x="254.5505371094" y="-15"/>
			<point x="90.5107421875" y="113.9194946289"/>
		</contour>
	</outline>
	<anchor name="bottom" x="548" y="0"/>
	<anchor name="ogonek" x="878" y="0"/>
	<anchor name="top" x="514" y="1000"/>
</glyph>
<glyph name="b" format="2">
	<unicode hex="0062"/>
	<advance width="1248"/>
	<outline>
		<contour>
			<point x="194.5518798828" y="0" type="line"/>
			<point x="206.2059936523" y="527" type="line"/>
			<point x="199.5518798828" y="1384.8981933594" type="line"/>
			<point x="17.9539794922" y="1409.8981933594" type="line"/>
			<point x="17.9539794922" y="1507.8981933594" type="line"/>
			<point x="330.3143920898" y="1533.9965820312" type="line"/>
			<point x="339.3143920898" y="1528.9965820312" type="line"/>
			<point x="365.573425293" y="1507.9965820312" type="line"/>
			<point x="356.3635864258" y="878.3570556641" type="line"/>
			<point x="402.4543457031" y="929.7968139648"/>
			<point x="596.829284668" y="1023.3165283203"/>
			<point x="732.2495117188" y="1023.3165283203" type="qcurve" smooth="yes"/>
			<point x="924.9381713867" y="1023.3165283203"/>
			<point x="1182.3629150391" y="785.6774291992"/>
			<point x="1182.3629150391" y="533.3181762695" type="qcurve" smooth="yes"/>
			<point x="1182.3629150391" y="275.8389892578"/>
			<point x="905.8038330078" y="-8"/>
			<point x="693.7043457031" y="-12" type="qcurve" smooth="yes"/>
			<point x="574.6889648438" y="-14"/>
			<point x="409.8837280273" y="35.3781738281"/>
			<point x="351.123840332" y="75.3400268555" type="qcurve"/>
			<point x="297.4961547852" y="0" type="line"/>
		</contour>
		<contour>
			<point x="352.3143920898" y="424.7584838867" type="line"/>
			<point x="362.6848754883" y="219.2066040039" type="line"/>
			<point x="390.4620361328" y="153.1104736328"/>
			<point x="553.637878418" y="86.2602539062"/>
			<point x="650.3236083984" y="86.2602539062" type="qcurve" smooth="yes"/>
			<point x="782.4984130859" y="86.2602539062"/>
			<point x="999.292175293" y="324.3349609375"/>
			<point x="999.292175293" y="504.1582641602" type="qcurve" smooth="yes"/>
			<point x="999.292175293" y="676.4644775391"/>
			<point x="810.0618896484" y="906.7598876953"/>
			<point x="701.3251342773" y="906.7598876953" type="qcurve" smooth="yes"/>
			<point x="593.5189208984" y="906.7598876953"/>
			<point x="391.2615966797" y="803.8513183594"/>
			<point x="352.3143920898" y="761.692199707" type="qcurve"/>
		</contour>
	</outline>
	<anchor name="bottom" x="571" y="0"/>
	<anchor name="top" x="571" y="1533"/>
</glyph>
<glyph name="c" format="2">
	<unicode hex="0063"/>
	<advance width="932"/>
	<outline>
		<contour>
			<point x="63.9975585938" y="468.8784179688" type="qcurve" smooth="yes"/>
			<point x="63.9975585938" y="736.3981323242"/>
			<point x="306.513671875" y="1024.9967041016"/>
			<point x="531.026184082" y="1024.9967041016" type="qcurve" smooth="yes"/>
			<point x="626.567199707" y="1024.9967041016"/>
			<point x="739.5008544922" y="977.5521240234"/>
			<point x="776.5537109375" y="942.2557373047" type="qcurve"/>
			<point x="795.1163330078" y="1010.4071044922" type="line"/>
			<point x="872.4053344727" y="1010.4071044922" type="line"/>
			<point x="887.4053344727" y="653.2304077148" type="line"/>
			<point x="803.4990234375" y="653.2304077148" type="line"/>
			<point x="784.8623046875" y="716.0512084961" type="line" smooth="yes"/>
			<point x="762.7079467773" y="823.4400634766"/>
			<point x="650.7590332031" y="917.0512084961"/>
			<point x="562.5110473633" y="917.0512084961" type="qcurve" smooth="yes"/>
			<point x="409.5274047852" y="917.0512084961"/>
			<point x="239.4387817383" y="687.7899780273"/>
			<point x="240.4387817383" y="482.9983520508" type="qcurve" smooth="yes"/>
			<point x="241.4387817383" y="316.8903808594"/>
			<point x="422.1809082031" y="91.8156738281"/>
			<point x="581.2427368164" y="91.8156738281" type="qcurve" smooth="yes"/>
			<point x="662.7994384766" y="91.8156738281"/>
			<point x="836.9600219727" y="171.4268188477"/>
			<point x="875.6565551758" y="233.9265136719" type="qcurve"/>
			<point x="923.0230102539" y="182" type="line"/>
			<point x="878.6401977539" y="93"/>
			<point x="668.4505004883" y="-17"/>
			<point x="525.0560913086" y="-17" type="qcurve" smooth="yes"/>
			<point x="329.7028198242" y="-17"/>
			<point x="63.9975585938" y="246.0388793945"/>
		</contour>
	</outline>
	<anchor name="bottom" x="563" y="0"/>
	<anchor name="top" x="534" y="1000"/>
</glyph>
<glyph name="d" format="2">
	<unicode hex="0064"/>
	<advance width="1207"/>
	<outline>
		<contour>
			<point x="64.4418945312" y="491.8088378906" type="qcurve" smooth="yes"/>
			<point x="64.4418945312" y="727.8001098633"/>
			<point x="343.0322875977" y="1026.3165283203"/>
			<point x="578.7138061523" y="1026.3165283203" type="qcurve" smooth="yes"/>
			<point x="670.5723266602" y="1026.3165283203"/>
			<point x="817.7107543945" y="973.0366821289"/>
			<point x="861.7574462891" y="941.7968139648" type="qcurve"/>
			<point x="857.4136352539" y="1396.9965820312" type="line"/>
			<point x="675.8157348633" y="1421.9965820312" type="line"/>
			<point x="675.8157348633" y="1519.9965820312" type="line"/>
			<point x="985.9298095703" y="1533.9965820312" type="line"/>
			<point x="1004.0036010742" y="1528.9965820312" type="line"/>
			<point x="1028.7315063477" y="1507.9965820312" type="line"/>
			<point x="1023.7069091797" y="537.6852416992" type="line"/>
			<point x="1031.151184082" y="107" type="line"/>
			<point x="1172.3433227539" y="80" type="line"/>
			<point x="1172.3433227539" y="0" type="line"/>
			<point x="899.7478027344" y="0" type="line"/>
			<point x="877.4925537109" y="13" type="line"/>
			<point x="861.7811889648" y="96.9594726562" type="line"/>
			<point x="820.7671508789" y="52.9885253906"/>
			<point x="627.65625" y="-11"/>
			<point x="539.7266235352" y="-11" type="qcurve" smooth="yes"/>
			<point x="320.4176635742" y="-11"/>
			<point x="64.4418945312" y="245.1120605469"/>
		</contour>
		<contour>
			<point x="245.5126342773" y="505.1582641602" type="qcurve" smooth="yes"/>
			<point x="245.5126342773" y="352.0150146484"/>
			<point x="402.0994873047" y="104.4825439453"/>
			<point x="541.5943603516" y="103.9454956055" type="qcurve" smooth="yes"/>
			<point x="637.6871948242" y="103.4084472656"/>
			<point x="809.6251831055" y="153.8940429688"/>
			<point x="860.9443969727" y="198.4020385742" type="qcurve"/>
			<point x="863.1559448242" y="538.2382202148" type="line"/>
			<point x="861.1559448242" y="801.1111450195" type="line"/>
			<point x="841.370300293" y="845.9155273438"/>
			<point x="686.7750244141" y="922.6674194336"/>
			<point x="590.9809570312" y="922.6674194336" type="qcurve" smooth="yes"/>
			<point x="450.5302734375" y="922.6674194336"/>
			<point x="245.5126342773" y="682.3959960938"/>
		</contour>
	</outline>
	<anchor name="bottom" x="604" y="0"/>
	<anchor name="center" x="876" y="1202"/>
	<anchor name="top" x="604" y="1534"/>
	<anchor name="topright" x="961" y="1000"/>
	<anchor name="liga" x="1207" y="0"/>
</glyph>
<glyph name="e" format="2">
	<unicode hex="0065"/>
	<advance width="985"/>
	<outline>
		<contour>
			<point x="63.8864746094" y="488.7000732422" type="qcurve" smooth="yes"/>
			<point x="63.8864746094" y="732.9978027344"/>
			<point x="338.9351196289" y="1024.9167480469"/>
			<point x="545.8619995117" y="1024.9167480469" type="qcurve" smooth="yes"/>
			<point x="744.4217529297" y="1024.9167480469"/>
			<point x="963.1307983398" y="791.7973632812"/>
			<point x="980.0592041016" y="593.3981323242" type="qcurve"/>
			<point x="980.0592041016" y="545.9719238281" type="line"/>
			<point x="154.7734985352" y="545.9719238281" type="line"/>
			<point x="154.1439819336" y="637.102355957" type="line"/>
			<point x="813.7783203125" y="637.102355957" type="line"/>
			<point x="802.7685546875" y="733.395690918"/>
			<point x="675.0050048828" y="912.0637207031"/>
			<point x="549.7419433594" y="912.0637207031" type="qcurve" smooth="yes"/>
			<point x="405.6544189453" y="912.0637207031"/>
			<point x="241.6054077148" y="702.2770385742"/>
			<point x="242.1424560547" y="523.7984619141" type="qcurve" smooth="yes"/>
			<point x="242.6795043945" y="330.2093505859"/>
			<point x="436.8249511719" y="68.9081420898"/>
			<point x="570.3638916016" y="68.9081420898" type="qcurve" smooth="yes"/>
			<point x="715.8460693359" y="68.9081420898"/>
			<point x="862.1278076172" y="171.6858520508"/>
			<point x="903.6311645508" y="227.389465332" type="qcurve"/>
			<point x="963.7242431641" y="178" type="line"/>
			<point x="917.4253540039" y="101"/>
			<point x="725.9605712891" y="-17"/>
			<point x="573.1655273438" y="-17" type="qcurve" smooth="yes"/>
			<point x="342.9211425781" y="-17"/>
			<point x="63.8864746094" y="253.9204101562"/>
		</contour>
	</outline>
	<anchor name="bottom" x="578" y="0"/>
	<anchor name="ogonek" x="744" y="0"/>
	<anchor name="top" x="539" y="1000"/>
</glyph>
<glyph name="f" format="2">
	<unicode hex="0066"/>
	<advance width="699"/>
	<outline>
		<contour>
			<point x="81.2811889648" y="0" type="line"/>
			<point x="81.2811889648" y="80" type="line"/>
			<point x="271.0682983398" y="107" type="line"/>
			<point x="276.0682983398" y="527" type="line"/>
			<point x="276.0682983398" y="892.1466674805" type="line"/>
			<point x="94.7357177734" y="906.1466674805" type="line"/>
			<point x="94.7357177734" y="999.0921630859" type="line"/>
			<point x="277.0682983398" y="1010.0921630859" type="line"/>
			<point x="274.0682983398" y="1331.0361328125" type="line" smooth="yes"/>
			<point x="272.2673339844" y="1389.4196777344"/>
			<point x="412.1245727539" y="1513.0361328125"/>
			<point x="513.8809814453" y="1513.0361328125" type="qcurve" smooth="yes"/>
			<point x="555.2665405273" y="1513.0361328125"/>
			<point x="633.7395019531" y="1496.9450073242"/>
			<point x="677.4150390625" y="1479.5361328125" type="qcurve" smooth="yes"/>
			<point x="692.9537963867" y="1475.5361328125" type="line"/>
			<point x="671.6323242188" y="1383.2152709961" type="line"/>
			<point x="655.0199584961" y="1386.0361328125" type="line" smooth="yes"/>
			<point x="637.3432006836" y="1393.1410522461"/>
			<point x="598.3829956055" y="1406.0361328125"/>
			<point x="566.6920776367" y="1406.0361328125" type="qcurve" smooth="yes"/>
			<point x="492.8519897461" y="1406.0361328125"/>
			<point x="436.7189941406" y="1340.3635253906"/>
			<point x="437.2258911133" y="1295.4663085938" type="qcurve" smooth="yes"/>
			<point x="437.0406494141" y="1007.0921630859" type="line"/>
			<point x="633.2235717773" y="1007.0921630859" type="line"/>
			<point x="633.2235717773" y="897.1466674805" type="line"/>
			<point x="436.0406494141" y="897.1466674805" type="line"/>
			<point x="436.0406494141" y="527" type="line"/>
			<point x="440.0406494141" y="107" type="line"/>
			<point x="632.9903564453" y="80" type="line"/>
			<point x="632.9903564453" y="0" type="line"/>
		</contour>
	</outline>
	<anchor name="bottom" x="314" y="0"/>
	<anchor name="top" x="314" y="1536"/>
</glyph>
<glyph name="g" format="2">
	<unicode hex="0067"/>
	<advance width="1050"/>
	<outline>
		<contour>
			<point x="28.4630126953" y="-257.1450805664" type="qcurve" smooth="yes"/>
			<point x="28.4630126953" y="-157.7810668945"/>
			<point x="125.5441894531" y="-17.008605957"/>
			<point x="266.7265014648" y="41.8127441406" type="qcurve"/>
			<point x="380.3590698242" y="16.280090332" type="line"/>
			<point x="225.1087036133" y="-60.0977783203"/>
			<point x="164.448425293" y="-189.4409179688"/>
			<point x="164.448425293" y="-246.8427734375" type="qcurve" smooth="yes"/>
			<point x="164.448425293" y="-335.9090576172"/>
			<point x="330.3270263672" y="-411.8138427734"/>
			<point x="530.6284790039" y="-411.8138427734" type="qcurve" smooth="yes"/>
			<point x="702.4748535156" y="-411.8138427734"/>
			<point x="900.364440918" y="-327.2297363281"/>
			<point x="900.364440918" y="-237.6002197266" type="qcurve" smooth="yes"/>
			<point x="900.364440918" y="-143.2004394531"/>
			<point x="727.2473144531" y="-92.741394043"/>
			<point x="528.0386962891" y="-83.8411865234" type="qcurve" smooth="yes"/>
			<point x="307.2954711914" y="-72.9025268555"/>
			<point x="98.8568725586" y="23.5666503906"/>
			<point x="98.8568725586" y="118.7889404297" type="qcurve" smooth="yes"/>
			<point x="98.8568725586" y="210.9965820312"/>
			<point x="233.8238525391" y="326.0221557617"/>
			<point x="329.0672607422" y="365.5903320312" type="qcurve"/>
			<point x="375.6241455078" y="307.1326293945" type="line"/>
			<point x="306.0375976562" y="280.5863037109"/>
			<point x="223.2750244141" y="219.3090209961"/>
			<point x="223.2750244141" y="172.5126953125" type="qcurve" smooth="yes"/>
			<point x="223.2750244141" y="137.512878418"/>
			<point x="362.2493286133" y="79.8499145508"/>
			<point x="577.0515136719" y="72.8721313477" type="qcurve" smooth="yes"/>
			<point x="773.7696533203" y="69.7713012695"/>
			<point x="1007.7579956055" y="-24.6990966797"/>
			<point x="1007.7579956055" y="-172.5147094727" type="qcurve" smooth="yes"/>
			<point x="1007.7579956055" y="-312.2427978516"/>
			<point x="768.6272583008" y="-510"/>
			<point x="526.7911376953" y="-510" type="qcurve" smooth="yes"/>
			<point x="281.2232666016" y="-510"/>
			<point x="28.4630126953" y="-374.8147583008"/>
		</contour>
		<contour>
			<point x="102.0615234375" y="632.7177124023" type="qcurve" smooth="yes"/>
			<point x="102.0615234375" y="792.6306762695"/>
			<point x="349.6497802734" y="1024.9167480469"/>
			<point x="535.963684082" y="1024.9167480469" type="qcurve" smooth="yes"/>
			<point x="720.4628295898" y="1024.9167480469"/>
			<point x="973.3393554688" y="811.6306762695"/>
			<point x="973.3393554688" y="646.5970458984" type="qcurve" smooth="yes"/>
			<point x="974.3393554688" y="511.319519043"/>
			<point x="728.573059082" y="248.5619506836"/>
			<point x="542.0192260742" y="248.5619506836" type="qcurve" smooth="yes"/>
			<point x="355.4963378906" y="248.5619506836"/>
			<point x="102.0615234375" y="488.3873901367"/>
		</contour>
		<contour>
			<point x="280.502746582" y="635.5371704102" type="qcurve" smooth="yes"/>
			<point x="280.502746582" y="532.0676879883"/>
			<point x="412.7622680664" y="351.5815429688"/>
			<point x="539.864074707" y="351.5815429688" type="qcurve" smooth="yes"/>
			<point x="662.4365844727" y="351.5815429688"/>
			<point x="794.688293457" y="537.141784668"/>
			<point x="794.688293457" y="635.5371704102" type="qcurve" smooth="yes"/>
			<point x="794.688293457" y="734.006652832"/>
			<point x="664.9561157227" y="911.4525756836"/>
			<point x="536.854309082" y="911.4525756836" type="qcurve" smooth="yes"/>
			<point x="414.4729614258" y="911.4525756836"/>
			<point x="280.502746582" y="732.5437011719"/>
		</contour>
		<contour>
			<point x="612.5818481445" y="921.3233642578" type="line"/>
			<point x="601.5818481445" y="985.9167480469" type="line"/>
			<point x="1059.2788085938" y="996.9167480469" type="line"/>
			<point x="1059.2788085938" y="872.4899291992" type="line"/>
		</contour>
	</outline>
	<anchor name="bottom" x="524" y="-416"/>
	<anchor name="top" x="484" y="1000"/>
</glyph>
<glyph name="h" format="2">
	<unicode hex="0068"/>
	<advance width="1222"/>
	<outline>
		<contour>
			<point x="68.6234130859" y="0" type="line"/>
			<point x="68.6234130859" y="80" type="line"/>
			<point x="214.4910888672" y="107" type="line"/>
			<point x="216.4910888672" y="533.3565063477" type="line"/>
			<point x="214.4910888672" y="1396.9965820312" type="line"/>
			<point x="29.0823974609" y="1421.9965820312" type="line"/>
			<point x="29.0823974609" y="1519.9965820312" type="line"/>
			<point x="337.8831176758" y="1533.9965820312" type="line"/>
			<point x="365.8831176758" y="1528.9965820312" type="line"/>
			<point x="372.8831176758" y="1507.9965820312" type="line"/>
			<point x="372.8831176758" y="833.3156738281" type="line"/>
			<point x="423.8011474609" y="904.9272460938"/>
			<point x="569.8731079102" y="1022.9967041016"/>
			<point x="693.6131591797" y="1022.9967041016" type="qcurve" smooth="yes"/>
			<point x="843.9906616211" y="1022.9967041016"/>
			<point x="984.813293457" y="887.5468139648"/>
			<point x="984.813293457" y="803.9967041016" type="qcurve" smooth="yes"/>
			<point x="984.813293457" y="763.4604492188"/>
			<point x="986.813293457" y="605.0498657227"/>
			<point x="986.813293457" y="568.3565063477" type="qcurve" smooth="yes"/>
			<point x="989.813293457" y="107" type="line"/>
			<point x="1129.8162231445" y="80" type="line"/>
			<point x="1129.8162231445" y="0" type="line"/>
			<point x="686.341003418" y="0" type="line"/>
			<point x="686.341003418" y="80" type="line"/>
			<point x="822.2360229492" y="107" type="line"/>
			<point x="822.2360229492" y="568.3565063477" type="line"/>
			<point x="822.2360229492" y="689.5894775391" type="line" smooth="yes"/>
			<point x="822.2360229492" y="771.3170776367"/>
			<point x="735.3895263672" y="878.4092407227"/>
			<point x="633.8248291016" y="878.4092407227" type="qcurve" smooth="yes"/>
			<point x="552.751159668" y="878.4092407227"/>
			<point x="421.1483764648" y="783.6104125977"/>
			<point x="378.8831176758" y="700.1168212891" type="qcurve"/>
			<point x="376.8831176758" y="568.3165283203" type="line"/>
			<point x="382.8831176758" y="107" type="line"/>
			<point x="527.9939575195" y="80" type="line"/>
			<point x="527.9939575195" y="0" type="line"/>
		</contour>
	</outline>
	<anchor name="bottom" x="629" y="0"/>
	<anchor name="center" x="347" y="1202"/>
	<anchor name="top" x="304" y="1534"/>
</glyph>
<glyph name="k" format="2">
	<unicode hex="006B"/>
	<advance width="1035"/>
	<outline>
		<contour>
			<point x="67.1745605469" y="0" type="line"/>
			<point x="67.1745605469" y="80" type="line"/>
			<point x="220.0422363281" y="107" type="line"/>
			<point x="223.2520751953" y="527" type="line"/>
			<point x="220.0422363281" y="1396.9965820312" type="line"/>
			<point x="34.6335449219" y="1421.9965820312" type="line"/>
			<point x="34.6335449219" y="1516.2124023438" type="line"/>
			<point x="345.6441040039" y="1533.9965820312" type="line"/>
			<point x="372.6441040039" y="1528.9965820312" type="line"/>
			<point x="381.6441040039" y="1507.9965820312" type="line"/>
			<point x="382.4342651367" y="562" type="line"/>
			<point x="389.6441040039" y="107" type="line"/>
			<point x="535.7549438477" y="80" type="line"/>
			<point x="535.7549438477" y="0" type="line"/>
		</contour>
		<contour>
			<point x="320.6456298828" y="424.98046875" type="line"/>
			<point x="320.6456298828" y="542.167175293" type="line"/>
			<point x="710.7468261719" y="893.9167480469" type="line"/>
			<point x="579.9331054688" y="915.9167480469" type="line"/>
			<point x="579.9331054688" y="1005.9167480469" type="line"/>
			<point x="983.9849243164" y="1005.9167480469" type="line"/>
			<point x="983.9849243164" y="915.9167480469" type="line"/>
			<point x="849.0899047852" y="892.9167480469" type="line"/>
		</contour>
		<contour>
			<point x="448.0280151367" y="562.9965209961" type="line"/>
			<point x="563.5982666016" y="662.8176879883" type="line"/>
			<point x="935.4063720703" y="107" type="line"/>
			<point x="1076.2459716797" y="80" type="line"/>
			<point x="1076.2459716797" y="0" type="line"/>
			<point x="657.5966796875" y="0" type="line"/>
			<point x="649.326171875" y="77.3913574219" type="line"/>
			<point x="749.5966796875" y="97.5" type="line"/>
		</contour>
	</outline>
	<anchor name="bottom" x="608" y="0"/>
	<anchor name="top" x="578" y="1534"/>
</glyph>
<glyph name="m" format="2">
	<unicode hex="006D"/>
	<advance width="1845"/>
	<outline>
		<contour>
			<point x="75.3250732422" y="0" type="line"/>
			<point x="75.3250732422" y="80" type="line"/>
			<point x="223.3280029297" y="107" type="line"/>
			<point x="226.5378417969" y="533.3565063477" type="line"/>
			<point x="223.3280029297" y="870.9167480469" type="line"/>
			<point x="61.3250732422" y="890.9167480469" type="line"/>
			<point x="61.3250732422" y="991.9167480469" type="line"/>
			<point x="333.1527709961" y="1005.9167480469" type="line"/>
			<point x="362.8068847656" y="982.8675537109" type="line"/>
			<point x="381.9298706055" y="844.8921508789" type="line"/>
			<point x="429.714050293" y="920.4970703125"/>
			<point x="613.6399536133" y="1021.9167480469"/>
			<point x="722.8707885742" y="1021.9167480469" type="qcurve" smooth="yes"/>
			<point x="837.2739257812" y="1021.9167480469"/>
			<point x="993.7565917969" y="927.5157470703"/>
			<point x="1010.0809326172" y="845.2380371094" type="qcurve"/>
			<point x="1054.2826538086" y="917.7377319336"/>
			<point x="1248.6931152344" y="1021.9167480469"/>
			<point x="1361.2284545898" y="1021.9167480469" type="qcurve" smooth="yes"/>
			<point x="1501.7689819336" y="1021.9167480469"/>
			<point x="1652.3485107422" y="900.9167480469"/>
			<point x="1652.3485107422" y="766.9167480469" type="qcurve" smooth="yes"/>
			<point x="1652.3485107422" y="721.0366821289"/>
			<point x="1651.3638916016" y="591.3165283203"/>
			<point x="1651.3239135742" y="568.3565063477" type="qcurve" smooth="yes"/>
			<point x="1657.3485107422" y="107" type="line"/>
			<point x="1797.3514404297" y="80" type="line"/>
			<point x="1797.3514404297" y="0" type="line"/>
			<point x="1348.0614624023" y="0" type="line"/>
			<point x="1348.0614624023" y="80" type="line"/>
			<point x="1489.9564819336" y="107" type="line"/>
			<point x="1491.1663208008" y="572.3565063477" type="line"/>
			<point x="1491.6085205078" y="698.1876220703" type="line" smooth="yes"/>
			<point x="1491.6928100586" y="804.1876220703"/>
			<point x="1395.9110107422" y="882.1876220703"/>
			<point x="1312.1572875977" y="882.1876220703" type="qcurve" smooth="yes"/>
			<point x="1203.8393554688" y="882.1876220703"/>
			<point x="1058.1444702148" y="790.3753051758"/>
			<point x="1020.0637817383" y="715.7053833008" type="qcurve"/>
			<point x="1017.549621582" y="746.938293457"/>
			<point x="1018.671081543" y="658.3165283203"/>
			<point x="1018.671081543" y="568.3565063477" type="qcurve" smooth="yes"/>
			<point x="1023.6956787109" y="107" type="line"/>
			<point x="1162.6986083984" y="80" type="line"/>
			<point x="1162.6986083984" y="0" type="line"/>
			<point x="724.4086303711" y="0" type="line"/>
			<point x="724.4086303711" y="80" type="line"/>
			<point x="859.3036499023" y="107" type="line"/>
			<point x="860.5134887695" y="566.3565063477" type="line"/>
			<point x="858.5134887695" y="698.1876220703" type="line" smooth="yes"/>
			<point x="857.5134887695" y="804.1876220703"/>
			<point x="774.4642944336" y="882.1876220703"/>
			<point x="691.0004882812" y="882.1876220703" type="qcurve" smooth="yes"/>
			<point x="591.1391601562" y="882.1876220703"/>
			<point x="431.1444702148" y="782.0836791992"/>
			<point x="384.5780639648" y="702.3274536133" type="qcurve"/>
			<point x="384.5101928711" y="526.3565063477" type="line"/>
			<point x="392.7200317383" y="107" type="line"/>
			<point x="530.830871582" y="80" type="line"/>
			<point x="530.830871582" y="0" type="line"/>
		</contour>
	</outline>
	<anchor name="bottom" x="958" y="0"/>
	<anchor name="top" x="958" y="1000"/>
</glyph>
<glyph name="n" format="2">
	<unicode hex="006E"/>
	<advance width="1234"/>
	<outline>
		<contour>
			<point x="75.3250732422" y="0" type="line"/>
			<point x="75.3250732422" y="80" type="line"/>
			<point x="223.3280029297" y="107" type="line"/>
			<point x="226.5378417969" y="533.3565063477" type="line"/>
			<point x="223.3280029297" y="858.818359375" type="line"/>
			<point x="61.3250732422" y="878.818359375" type="line"/>
			<point x="61.3250732422" y="976.2233886719" type="line"/>
			<point x="332.7576904297" y="1005.9167480469" type="line"/>
			<point x="361.8068847656" y="988.9167480469" type="line"/>
			<point x="380.9298706055" y="834.5493164062" type="line"/>
			<point x="425.1732788086" y="907.4948730469"/>
			<point x="615.9329223633" y="1021.9567260742"/>
			<point x="741.5845947266" y="1021.9567260742" type="qcurve" smooth="yes"/>
			<point x="886.5178222656" y="1021.9567260742"/>
			<point x="1041.4388427734" y="900.9567260742"/>
			<point x="1041.4388427734" y="766.9567260742" type="qcurve" smooth="yes"/>
			<point x="1041.4388427734" y="707.0766601562"/>
			<point x="1041.0191650391" y="557.3165283203"/>
			<point x="1041.0191650391" y="568.3565063477" type="qcurve" smooth="yes"/>
			<point x="1047.043762207" y="107" type="line"/>
			<point x="1187.0466918945" y="80" type="line"/>
			<point x="1187.0466918945" y="0" type="line"/>
			<point x="740.7567138672" y="0" type="line"/>
			<point x="740.7567138672" y="80" type="line"/>
			<point x="879.6517333984" y="107" type="line"/>
			<point x="879.6517333984" y="568.3565063477" type="line"/>
			<point x="877.6517333984" y="722.6781005859" type="line" smooth="yes"/>
			<point x="876.6517333984" y="818.8446655273"/>
			<point x="777.311706543" y="883.510925293"/>
			<point x="676.7962646484" y="883.510925293" type="qcurve" smooth="yes"/>
			<point x="582.3568725586" y="883.510925293"/>
			<point x="415.4282836914" y="781.4175415039"/>
			<point x="385.3249511719" y="700.1168212891" type="qcurve"/>
			<point x="384.7200317383" y="568.3565063477" type="line"/>
			<point x="392.9298706055" y="107" type="line"/>
			<point x="539.0407104492" y="80" type="line"/>
			<point x="539.0407104492" y="0" type="line"/>
		</contour>
	</outline>
	<anchor name="bottom" x="632" y="0"/>
	<anchor name="top" x="632" y="1000"/>
	<anchor name="liga" x="1264" y="0"/>
</glyph>
<glyph name="o" format="2">
	<unicode hex="006F"/>
	<advance width="1164"/>
	<outline>
		<contour>
			<point x="63.9975585938" y="495.2943115234" type="qcurve" smooth="yes"/>
			<point x="63.9975585938" y="711.3552856445"/>
			<point x="343.8859863281" y="1024.9967041016"/>
			<point x="581.1134643555" y="1024.9967041016" type="qcurve" smooth="yes"/>
			<point x="831.4147338867" y="1024.9967041016"/>
			<point x="1099.9135742188" y="751.3975830078"/>
			<point x="1099.9135742188" y="509.1582641602" type="qcurve" smooth="yes"/>
			<point x="1099.9135742188" y="281.8789672852"/>
			<point x="820.9467163086" y="-17"/>
			<point x="581.9044799805" y="-17" type="qcurve" smooth="yes"/>
			<point x="340.706237793" y="-17"/>
			<point x="63.9975585938" y="244.8858642578"/>
		</contour>
		<contour>
			<point x="242.6486206055" y="526.1582641602" type="qcurve" smooth="yes"/>
			<point x="243.6486206055" y="355.035949707"/>
			<point x="435.2728881836" y="88.3159790039"/>
			<point x="585.1681518555" y="88.3159790039" type="qcurve" smooth="yes"/>
			<point x="744.7838745117" y="88.3159790039"/>
			<point x="917.6329956055" y="324.5659179688"/>
			<point x="917.6329956055" y="510.1582641602" type="qcurve" smooth="yes"/>
			<point x="917.6329956055" y="677.6918945312"/>
			<point x="734.872253418" y="908.4584350586"/>
			<point x="585.1681518555" y="908.4584350586" type="qcurve" smooth="yes"/>
			<point x="421.3612670898" y="908.4584350586"/>
			<point x="241.6486206055" y="705.3383789062"/>
		</contour>
	</outline>
	<anchor name="bottom" x="584" y="0"/>
	<anchor name="center" x="584" y="500"/>
	<anchor name="ogonek" x="747" y="0"/>
	<anchor name="top" x="584" y="1000"/>
	<anchor name="topright" x="751" y="1000"/>
	<anchor name="GRKtop" x="584" y="1000"/>
	<anchor name="yu_dash" x="150" y="500"/>
</glyph>
<glyph name="p" format="2">
	<unicode hex="0070"/>
	<advance width="1180"/>
	<outline>
		<contour>
			<point x="55.3934326172" y="-480" type="line"/>
			<point x="55.3934326172" y="-400" type="line"/>
			<point x="210.4503173828" y="-373" type="line"/>
			<point x="214.4503173828" y="429.9583740234" type="line"/>
			<point x="212.4503173828" y="870.9167480469" type="line"/>
			<point x="52.4473876953" y="890.9167480469" type="line"/>
			<point x="52.4473876953" y="988.3217773438" type="line"/>
			<point x="328.447265625" y="1005.9167480469" type="line"/>
			<point x="351.447265625" y="987.9167480469" type="line"/>
			<point x="370.447265625" y="883.9167480469" type="line"/>
			<point x="408.5443725586" y="937.0366821289"/>
			<point x="570.3583984375" y="1022.3165283203"/>
			<point x="680.8837280273" y="1022.3165283203" type="qcurve" smooth="yes"/>
			<point x="862.8468017578" y="1022.3165283203"/>
			<point x="1111.5425415039" y="774.8165283203"/>
			<point x="1111.5425415039" y="532.9583740234" type="qcurve" smooth="yes"/>
			<point x="1111.5425415039" y="285.8030395508"/>
			<point x="851.438293457" y="-12"/>
			<point x="650.1032714844" y="-12" type="qcurve" smooth="yes"/>
			<point x="545.82421875" y="-12"/>
			<point x="414.51171875" y="31"/>
			<point x="378.447265625" y="66" type="qcurve"/>
			<point x="380.447265625" y="-373" type="line"/>
			<point x="571.20703125" y="-400" type="line"/>
			<point x="571.20703125" y="-480" type="line"/>
		</contour>
		<contour>
			<point x="377.447265625" y="242.5198974609" type="line"/>
			<point x="410.357421875" y="167.0012207031"/>
			<point x="544.888671875" y="80.352722168"/>
			<point x="624.4453125" y="80.352722168" type="qcurve" smooth="yes"/>
			<point x="756.6201171875" y="80.352722168"/>
			<point x="929.681640625" y="306.731628418"/>
			<point x="929.681640625" y="503.9583740234" type="qcurve" smooth="yes"/>
			<point x="929.681640625" y="701.5415039062"/>
			<point x="772.8295898438" y="898.1487426758"/>
			<point x="644.037109375" y="898.1487426758" type="qcurve" smooth="yes"/>
			<point x="548.84375" y="898.1487426758"/>
			<point x="411.048828125" y="819.1095581055"/>
			<point x="374.447265625" y="764.4525756836" type="qcurve"/>
			<point x="374.447265625" y="425.9583740234" type="line"/>
		</contour>
	</outline>
	<anchor name="bottom" x="599" y="0"/>
	<anchor name="top" x="599" y="1000"/>
</glyph>
<glyph name="s" format="2">
	<unicode hex="0073"/>
	<advance width="936"/>
	<outline>
		<contour>
			<point x="93.3508596438" y="10.5895996094" type="line"/>
			<point x="93.3508596438" y="354.673828125" type="line"/>
			<point x="191.8866872805" y="354.673828125" type="line"/>
			<point x="199.7014455813" y="329.8530273438" type="line" smooth="yes"/>
			<point x="219.1252112517" y="202.3159790039"/>
			<point x="354.213223947" y="101.7048339844"/>
			<point x="472.6558509002" y="101.7048339844" type="qcurve" smooth="yes"/>
			<point x="578.6897254119" y="100.7048339844"/>
			<point x="719.6949744353" y="222.1024780273"/>
			<point x="719.4313025603" y="292.3532714844" type="qcurve" smooth="yes"/>
			<point x="719.1676306853" y="362.6561279297"/>
			<point x="601.3147254119" y="400.8238525391"/>
			<point x="420.0656409392" y="455.1590576172" type="qcurve" smooth="yes"/>
			<point x="247.59914924" y="502.7632446289"/>
			<point x="98.7898230681" y="638.5103759766"/>
			<point x="99.3130788821" y="745.0939331055" type="qcurve" smooth="yes"/>
			<point x="99.8445105681" y="858.7912597656"/>
			<point x="290.1075720916" y="1020.9167480469"/>
			<point x="450.8004431853" y="1020.9167480469" type="qcurve" smooth="yes"/>
			<point x="554.8404212127" y="1020.9167480469"/>
			<point x="664.6755652556" y="965.3364257812"/>
			<point x="695.3703894744" y="929.1265869141" type="qcurve"/>
			<point x="714.1851477752" y="995.3271484375" type="line"/>
			<point x="795.4989905486" y="995.3271484375" type="line"/>
			<point x="795.4989905486" y="691.8540649414" type="line"/>
			<point x="694.8890662322" y="691.8540649414" type="line"/>
			<point x="685.0416541228" y="729.6748657227" type="line" smooth="yes"/>
			<point x="675.9861121306" y="819.6748657227"/>
			<point x="545.9161658416" y="911.6748657227"/>
			<point x="458.7931189666" y="911.6748657227" type="qcurve" smooth="yes"/>
			<point x="378.1684241423" y="911.6748657227"/>
			<point x="256.2293982634" y="837.0227050781"/>
			<point x="256.2293982634" y="781.2406616211" type="qcurve" smooth="yes"/>
			<point x="256.2293982634" y="708.2432861328"/>
			<point x="356.9232473391" y="644.8807983398"/>
			<point x="505.6741628665" y="611.7250976562" type="qcurve" smooth="yes"/>
			<point x="653.0625906008" y="579.7122802734"/>
			<point x="880.3002600798" y="444.4548339844"/>
			<point x="880.3002600798" y="280.3655395508" type="qcurve" smooth="yes"/>
			<point x="880.3002600798" y="143.8319091797"/>
			<point x="656.6325354705" y="-11"/>
			<point x="506.8956580291" y="-11" type="qcurve" smooth="yes"/>
			<point x="383.9652381072" y="-11"/>
			<point x="234.1864295134" y="49.2098388672"/>
			<point x="204.504057886" y="87.7901611328" type="qcurve"/>
			<point x="168.0597829836" y="10.5895996094" type="line"/>
		</contour>
	</outline>
	<anchor name="bottom" x="468" y="0"/>
	<anchor name="top" x="416" y="1000"/>
</glyph>
<glyph name="x" format="2">
	<unicode hex="0078"/>
	<advance width="944"/>
	<outline>
		<contour>
			<point x="-6.0111083984" y="0" type="line"/>
			<point x="-6.0111083984" y="80" type="line"/>
			<point x="137.4234619141" y="103" type="line"/>
			<point x="380.4026489258" y="465.6069946289" type="line"/>
			<point x="117.5896606445" y="888.9167480469" type="line"/>
			<point x="-4.0607299805" y="910.9167480469" type="line"/>
			<point x="-4.0607299805" y="1005.9167480469" type="line"/>
			<point x="413.0223999023" y="1005.9167480469" type="line"/>
			<point x="413.0223999023" y="910.9167480469" type="line"/>
			<point x="285.4259643555" y="891.9167480469" type="line"/>
			<point x="410.0753173828" y="629.1669921875" type="line"/>
			<point x="456.526550293" y="568.9684448242" type="line"/>
			<point x="458.526550293" y="568.9684448242" type="line"/>
			<point x="502.1756591797" y="630.221862793" type="line"/>
			<point x="642.502746582" y="888.9167480469" type="line"/>
			<point x="517.2573852539" y="910.9167480469" type="line"/>
			<point x="517.2573852539" y="1005.9167480469" type="line"/>
			<point x="884.2503662109" y="1005.9167480469" type="line"/>
			<point x="884.2503662109" y="910.9167480469" type="line"/>
			<point x="767.7078857422" y="888.9167480469" type="line"/>
			<point x="526.6498413086" y="507.1973266602" type="line"/>
			<point x="799.5580444336" y="107" type="line"/>
			<point x="950.2897338867" y="80" type="line"/>
			<point x="950.2897338867" y="0" type="line"/>
			<point x="502.1253051758" y="0" type="line"/>
			<point x="502.1253051758" y="80" type="line"/>
			<point x="633.7217407227" y="102" type="line"/>
			<point x="511.1834106445" y="322.462097168" type="line"/>
			<point x="453.1959228516" y="407.8092651367" type="line"/>
			<point x="451.1959228516" y="407.8092651367" type="line"/>
			<point x="398.6327514648" y="319.5093383789" type="line"/>
			<point x="262.6286010742" y="103" type="line"/>
			<point x="421.9818725586" y="80" type="line"/>
			<point x="421.9818725586" y="0" type="line"/>
		</contour>
	</outline>
	<anchor name="bottom" x="522" y="0"/>
	<anchor name="top" x="522" y="1000"/>
	<anchor name="cy_descender" x="1043" y="80"/>
</glyph>
<glyph name="idotless" format="2">
	<unicode hex="0131"/>
	<advance width="621"/>
	<outline>
		<contour>
			<point x="82.4185791016" y="0" type="line"/>
			<point x="82.4185791016" y="82" type="line"/>
			<point x="238.2056884766" y="107" type="line"/>
			<point x="241.4155273438" y="527" type="line"/>
			<point x="237.1810913086" y="861.818359375" type="line"/>
			<point x="68.4185791016" y="883.818359375" type="line"/>
			<point x="68.4185791016" y="977.0341796875" type="line"/>
			<point x="338.3763427734" y="1008.9167480469" type="line"/>
			<point x="384.9436035156" y="1006.9167480469" type="line"/>
			<point x="406.8321533203" y="957.9544067383" type="line"/>
			<point x="399.5977172852" y="527" type="line"/>
			<point x="407.8075561523" y="107" type="line"/>
			<point x="571.5946655273" y="82" type="line"/>
			<point x="571.5946655273" y="0" type="line"/>
		</contour>
	</outline>
	<anchor name="bottom" x="320" y="0"/>
	<anchor name="top" x="320" y="1000"/>
	<anchor name="ogonek" x="513" y="0"/>
	<anchor name="liga" x="639" y="0"/>
</glyph>
<glyph name="jdotless" format="2">
	<advance width="583"/>
	<outline>
		<contour>
			<point x="15.1981811523" y="-495" type="qcurve"/>
			<point x="16.4080200195" y="-376" type="line"/>
			<point x="116.2031860352" y="-380.0944824219"/>
			<point x="233.0830078125" y="-338.9901733398"/>
			<point x="233.0830078125" y="-282.592590332" type="qcurve" smooth="yes"/>
			<point x="234.8731689453" y="532.9167480469" type="line"/>
			<point x="233.2436523438" y="862.4232788086" type="line"/>
			<point x="70.0860595703" y="883.818359375" type="line"/>
			<point x="70.0860595703" y="977.0341796875" type="line"/>
			<point x="332.4389038086" y="1008.9167480469" type="line"/>
			<point x="379.0061645508" y="1006.9167480469" type="line"/>
			<point x="402.8947143555" y="957.9544067383" type="line"/>
			<point x="397.2651977539" y="532.9167480469" type="line"/>
			<point x="401.4750366211" y="-286.1594848633" type="line" smooth="yes"/>
			<point x="402.0799560547" y="-392.4331054688"/>
			<point x="213.3845214844" y="-507"/>
		</contour>
	</outline>
	<anchor name="bottom" x="278" y="-436"/>
	<anchor name="top" x="278" y="1000"/>
	<anchor name="_liga" x="0" y="0"/>
</glyph>
